# xmcd
# Copyright (C) 1995-1998 Ti Kan
#
# Track frame offsets:
#       150
#       19793
#       39580
#       55497
#       84235
#       105839
#       120832
#       136932
#       156629
#       172486
#       188373
#       203686
#       218728
#       237044
#       262969
#
# Disc length: 3759 seconds
#
# Revision: 0
# Processed by: cddbd v1.5.2PL0 Copyright (c) Steve Scherf et al.
# Submitted via: CD-Import v1.0
#
DISCID=bf0ead0f
DTITLE=Jarabe De Palo - Grandes Exitos
DYEAR=1900
DGENRE=
TTITLE0=La Flaca
TTITLE1=Depende
TTITLE2=Grita
TTITLE3=Dos Días En La Vida
TTITLE4=El Lado Oscuro
TTITLE5=Completo Incompleto
TTITLE6=Quiero Ser Poeta
TTITLE7=Realidad O Sueño
TTITLE8=El Bosque De Palo
TTITLE9=Vuela
TTITLE10=Perro Apaleado
TTITLE11=Duerme Conmigo
TTITLE12=Pura Sangre
TTITLE13=De Velta Y Vuelta
TTITLE14=Agua
EXTD=
EXTT0=
EXTT1=
EXTT2=
EXTT3=
EXTT4=
EXTT5=
EXTT6=
EXTT7=
EXTT8=
EXTT9=
EXTT10=
EXTT11=
EXTT12=
EXTT13=
EXTT14=
PLAYORDER=
